<?xml version="1.0" encoding="UTF-8"?>
<svg xmlns="http://www.w3.org/2000/svg" xmlns:xlink="http://www.w3.org/1999/xlink" width="245.02pt" height="308.79pt" viewBox="0 0 245.02 308.79" version="1.1">
<defs>
<clipPath id="clip1">
  <path d="M 0 0 L 245.019531 0 L 245.019531 308.789063 L 0 308.789063 Z M 0 0 "/>
</clipPath>
<clipPath id="clip2">
  <path d="M 0 0 L 245.019531 0 L 245.019531 281 L 0 281 Z M 0 0 "/>
</clipPath>
<clipPath id="clip3">
  <path d="M 21 251 L 56 251 L 56 308.789063 L 21 308.789063 Z M 21 251 "/>
</clipPath>
<clipPath id="clip4">
  <path d="M 58 262 L 89 262 L 89 308.789063 L 58 308.789063 Z M 58 262 "/>
</clipPath>
<clipPath id="clip5">
  <path d="M 92 262 L 123 262 L 123 308.789063 L 92 308.789063 Z M 92 262 "/>
</clipPath>
<clipPath id="clip6">
  <path d="M 125 251 L 157 251 L 157 308.789063 L 125 308.789063 Z M 125 251 "/>
</clipPath>
<clipPath id="clip7">
  <path d="M 159 262 L 190 262 L 190 308.789063 L 159 308.789063 Z M 159 262 "/>
</clipPath>
<clipPath id="clip8">
  <path d="M 193 262 L 224 262 L 224 308.789063 L 193 308.789063 Z M 193 262 "/>
</clipPath>
</defs>
<g id="surface1">
<g clip-path="url(#clip1)" clip-rule="nonzero">
<path style="fill:none;stroke-width:158.49;stroke-linecap:butt;stroke-linejoin:miter;stroke:rgb(13.699341%,12.199402%,12.5%);stroke-opacity:1;stroke-miterlimit:3.864;" d="M 1225.117188 3008.642187 L 1649.648438 3008.642187 L 2370.976563 2286.142187 L 2370.976563 1453.36875 L 1649.648438 733.2125 L 800.546875 733.2125 L 79.257813 1453.36875 L 79.257813 2286.142187 L 800.546875 3008.642187 Z M 1225.117188 3008.642187 " transform="matrix(0.1,0,0,-0.1,0,308.79)"/>
</g>
<g clip-path="url(#clip2)" clip-rule="nonzero">
<path style="fill:none;stroke-width:158.49;stroke-linecap:butt;stroke-linejoin:miter;stroke:rgb(13.699341%,12.199402%,12.5%);stroke-opacity:1;stroke-miterlimit:3.864;" d="M 504.960938 1867.821875 C 504.960938 2266.18125 827.890625 2589.110937 1226.289063 2589.110937 C 1624.648438 2589.110937 1947.617188 2266.18125 1947.617188 1867.821875 C 1947.617188 1469.4625 1624.648438 1146.49375 1226.289063 1146.49375 C 827.890625 1146.49375 504.960938 1469.4625 504.960938 1867.821875 Z M 504.960938 1867.821875 " transform="matrix(0.1,0,0,-0.1,0,308.79)"/>
</g>
<path style=" stroke:none;fill-rule:evenodd;fill:rgb(13.699341%,12.199402%,12.5%);fill-opacity:1;" d="M 39.546875 135.808594 L 29.820313 128.742188 L 20.09375 135.808594 L 23.808594 124.371094 L 14.082031 117.304688 L 26.105469 117.304688 L 29.820313 105.871094 L 33.535156 117.304688 L 45.558594 117.304688 L 35.832031 124.371094 "/>
<path style="fill:none;stroke-width:5.5;stroke-linecap:butt;stroke-linejoin:miter;stroke:rgb(13.699341%,12.199402%,12.5%);stroke-opacity:1;stroke-miterlimit:3.864;" d="M 395.46875 1729.814062 L 298.203125 1800.478125 L 200.9375 1729.814062 L 238.085938 1844.189062 L 140.820313 1914.853125 L 261.054688 1914.853125 L 298.203125 2029.189062 L 335.351563 1914.853125 L 455.585938 1914.853125 L 358.320313 1844.189062 Z M 395.46875 1729.814062 " transform="matrix(0.1,0,0,-0.1,0,308.79)"/>
<path style=" stroke:none;fill-rule:evenodd;fill:rgb(13.699341%,12.199402%,12.5%);fill-opacity:1;" d="M 88.019531 85.292969 L 112.121094 85.292969 L 112.121094 117.9375 L 133.953125 84.726563 L 160.605469 84.726563 L 135.089844 117.371094 L 161.175781 161.605469 L 134.519531 161.605469 L 112.121094 124.742188 L 112.121094 161.605469 L 88.019531 161.605469 "/>
<path style="fill:none;stroke-width:4.49;stroke-linecap:butt;stroke-linejoin:miter;stroke:rgb(13.699341%,12.199402%,12.5%);stroke-opacity:1;stroke-miterlimit:3.864;" d="M 880.195313 2234.970312 L 1121.210938 2234.970312 L 1121.210938 1908.525 L 1339.53125 2240.634375 L 1606.054688 2240.634375 L 1350.898438 1914.189062 L 1611.757813 1471.845312 L 1345.195313 1471.845312 L 1121.210938 1840.478125 L 1121.210938 1471.845312 L 880.195313 1471.845312 Z M 880.195313 2234.970312 " transform="matrix(0.1,0,0,-0.1,0,308.79)"/>
<path style=" stroke:none;fill-rule:evenodd;fill:rgb(13.699341%,12.199402%,12.5%);fill-opacity:1;" d="M 224.492188 135.808594 L 214.765625 128.742188 L 205.039063 135.808594 L 208.753906 124.371094 L 199.027344 117.304688 L 211.050781 117.304688 L 214.765625 105.871094 L 218.480469 117.304688 L 230.503906 117.304688 L 220.777344 124.371094 "/>
<path style="fill:none;stroke-width:5.5;stroke-linecap:butt;stroke-linejoin:miter;stroke:rgb(13.699341%,12.199402%,12.5%);stroke-opacity:1;stroke-miterlimit:3.864;" d="M 2244.921875 1729.814062 L 2147.65625 1800.478125 L 2050.390625 1729.814062 L 2087.539063 1844.189062 L 1990.273438 1914.853125 L 2110.507813 1914.853125 L 2147.65625 2029.189062 L 2184.804688 1914.853125 L 2305.039063 1914.853125 L 2207.773438 1844.189062 Z M 2244.921875 1729.814062 " transform="matrix(0.1,0,0,-0.1,0,308.79)"/>
<g clip-path="url(#clip3)" clip-rule="nonzero">
<path style=" stroke:none;fill-rule:evenodd;fill:rgb(13.699341%,12.199402%,12.5%);fill-opacity:1;" d="M 34.664063 308.234375 L 34.664063 279.628906 L 34.824219 279.628906 L 42.746094 308.234375 L 55.742188 308.234375 L 46.867188 276.699219 L 55.664063 251.816406 L 43.144531 251.816406 L 34.824219 277.410156 L 34.664063 277.410156 L 34.664063 251.816406 L 21.511719 251.816406 L 21.511719 308.234375 "/>
</g>
<g clip-path="url(#clip4)" clip-rule="nonzero">
<path style=" stroke:none;fill-rule:evenodd;fill:rgb(13.699341%,12.199402%,12.5%);fill-opacity:1;" d="M 70.789063 273.765625 C 70.789063 272.101563 71.425781 270.597656 73.40625 270.597656 C 75.386719 270.597656 76.023438 272.101563 76.023438 273.765625 L 76.023438 297.378906 C 76.023438 299.042969 75.386719 300.550781 73.40625 300.550781 C 71.425781 300.550781 70.789063 299.042969 70.789063 297.378906 Z M 88.542969 275.113281 C 88.542969 266.953125 83.152344 262.355469 73.40625 262.355469 C 63.660156 262.355469 58.273438 266.953125 58.273438 275.113281 L 58.273438 296.746094 C 58.273438 305.144531 65.402344 308.789063 73.40625 308.789063 C 81.410156 308.789063 88.542969 305.144531 88.542969 296.746094 "/>
</g>
<g clip-path="url(#clip5)" clip-rule="nonzero">
<path style=" stroke:none;fill-rule:evenodd;fill:rgb(13.699341%,12.199402%,12.5%);fill-opacity:1;" d="M 122.285156 278.917969 L 122.285156 273.6875 C 122.285156 266.082031 116.179688 262.355469 106.675781 262.355469 C 98.429688 262.355469 92.015625 265.921875 92.015625 274.957031 C 92.015625 289.695313 109.765625 286.367188 109.765625 297.140625 C 109.765625 299.042969 109.128906 300.550781 107.148438 300.550781 C 105.167969 300.550781 104.53125 299.042969 104.53125 297.140625 L 104.53125 290.328125 L 92.015625 290.328125 L 92.015625 297.539063 C 92.015625 305.699219 98.195313 308.789063 106.199219 308.789063 C 116.65625 308.789063 122.046875 304.035156 122.046875 295.082031 C 122.046875 280.34375 104.53125 281.769531 104.53125 274.003906 C 104.53125 272.101563 105.167969 270.597656 107.148438 270.597656 C 109.128906 270.597656 109.765625 272.101563 109.765625 274.003906 L 109.765625 278.917969 "/>
</g>
<g clip-path="url(#clip6)" clip-rule="nonzero">
<path style=" stroke:none;fill-rule:evenodd;fill:rgb(13.699341%,12.199402%,12.5%);fill-opacity:1;" d="M 138.273438 308.234375 L 138.273438 277.570313 C 138.273438 275.113281 138.355469 272.65625 140.890625 272.65625 C 143.425781 272.65625 143.503906 275.113281 143.503906 277.570313 L 143.503906 308.234375 L 156.027344 308.234375 L 156.027344 273.132813 C 156.027344 266.554688 153.648438 262.355469 147.308594 262.355469 C 142.714844 262.355469 139.703125 264.574219 138.433594 268.535156 L 138.273438 268.535156 L 138.273438 251.816406 L 125.757813 251.816406 L 125.757813 308.234375 "/>
</g>
<g clip-path="url(#clip7)" clip-rule="nonzero">
<path style=" stroke:none;fill-rule:evenodd;fill:rgb(13.699341%,12.199402%,12.5%);fill-opacity:1;" d="M 189.769531 287 L 189.769531 275.113281 C 189.769531 265.367188 182.636719 262.355469 174.632813 262.355469 C 164.886719 262.355469 159.496094 266.953125 159.496094 275.113281 L 159.496094 296.746094 C 159.496094 305.144531 166.628906 308.789063 174.632813 308.789063 C 183.429688 308.789063 189.769531 305.542969 189.769531 296.984375 L 189.769531 290.328125 L 177.246094 290.328125 L 177.246094 296.191406 C 177.246094 298.886719 176.613281 300.550781 174.632813 300.550781 C 172.96875 300.550781 172.015625 298.886719 172.015625 296.191406 L 172.015625 287 Z M 172.015625 279.472656 L 172.015625 273.292969 C 172.015625 271.546875 172.890625 270.597656 174.632813 270.597656 C 176.375 270.597656 177.246094 271.546875 177.246094 273.292969 L 177.246094 279.472656 "/>
</g>
<g clip-path="url(#clip8)" clip-rule="nonzero">
<path style=" stroke:none;fill-rule:evenodd;fill:rgb(13.699341%,12.199402%,12.5%);fill-opacity:1;" d="M 205.757813 262.910156 L 193.238281 262.910156 L 193.238281 308.234375 L 205.757813 308.234375 L 205.757813 276.382813 C 205.757813 274.558594 206.316406 272.65625 208.375 272.65625 C 210.433594 272.65625 210.988281 274.558594 210.988281 276.382813 L 210.988281 287.394531 L 223.511719 287.394531 L 223.511719 271.230469 C 223.511719 266.554688 221.371094 262.355469 215.03125 262.355469 C 210.433594 262.355469 207.660156 264.890625 205.996094 268.855469 L 205.757813 268.855469 "/>
</g>
</g>
</svg>
